<svg width="618" height="350" viewBox="0 0 618 350" fill="none" xmlns="http://www.w3.org/2000/svg">
<path d="M0 250.804C0 250.804 79.7671 201.89 109.115 190.602C138.464 179.315 155.772 173.294 184.367 151.471C213.716 128.896 250.589 82.9921 263.382 73.2093C276.175 64.1791 276.175 67.1892 300.255 58.9115C330.356 48.3762 371.745 -14.8355 387.548 3.22498C396.578 14.5128 420.659 83.7446 431.194 55.1489C435.709 43.1085 445.492 23.543 455.275 31.0682C465.81 39.3459 463.552 37.8409 474.088 76.2194C484.623 114.598 489.138 112.34 502.683 125.886C516.981 138.679 506.446 132.658 521.496 162.759C537.299 192.86 568.153 226.723 579.44 244.784C586.966 258.329 592.986 268.865 595.243 272.627C562.132 262.092 499.673 244.031 427.431 231.991C420.659 219.198 419.906 198.128 418.401 190.602C412.381 160.502 373.25 169.532 386.795 144.699C391.31 134.916 453.77 77.7245 432.699 80.7345C419.906 82.9921 397.331 87.5072 392.815 89.7648C328.851 116.855 407.866 26.5531 343.149 54.3963C337.129 57.4064 319.821 54.3963 309.286 65.6841C299.503 76.9719 285.958 63.4266 273.917 76.9719C261.877 90.5173 269.402 96.5374 249.837 112.34C231.024 128.143 231.776 128.896 215.221 140.184C199.418 151.471 197.16 167.274 182.862 172.542C169.317 177.81 142.979 190.602 133.949 190.602C124.166 190.602 86.5398 213.178 82.0247 217.693C78.2621 222.961 0 250.804 0 250.804Z" fill="#716862"/>
<path d="M26.3384 268.112C26.3384 268.112 185.873 225.218 331.861 235.754C477.098 246.289 617.066 296.708 617.066 296.708L562.885 311.006C445.492 266.607 324.336 253.062 324.336 253.062C324.336 253.062 440.224 289.935 507.199 326.056L416.144 349.384C416.144 349.384 322.079 292.945 258.867 274.885C196.408 256.824 26.3384 268.112 26.3384 268.112Z" fill="#716862"/>
</svg>
